# xmcd
#
# Track frame offsets: 
#        150
#        24886
#        55400
#        77559
#        101331
#        122799
#        145546
#        165159
#        188761
#        211278
#        228487
#
# Disc length: 3286 seconds
#
# Revision: 1
# Processed by: cddbd v1.5.2PL0 Copyright (c) Steve Scherf et al.
# Submitted via: ExactAudioCopy v0.95a4
#
DISCID=7f0cd40b
DTITLE=Emilie-Claire Barlow - Like a Lover
DYEAR=2005
DGENRE=Jazz
TTITLE0=Like A Lover
TTITLE1=On The Sunny Side Of The Street
TTITLE2=Someone To Watch Over Me
TTITLE3=A Time For Love
TTITLE4=So Danço Samba
TTITLE5=The Things We Did Last Summer
TTITLE6=(I've Got) Just About Everything I Need
TTITLE7=Retrato Em Branco E Preto
TTITLE8=Our Love Is Here To Stay
TTITLE9=Blame It On My Youth
TTITLE10=Like A Lover (remix)
EXTD=YEAR: 2005
EXTT0=
EXTT1=
EXTT2=
EXTT3=
EXTT4=
EXTT5=
EXTT6=
EXTT7=
EXTT8=
EXTT9=
EXTT10=
PLAYORDER=
